<svg width="23" height="29" viewBox="0 0 23 29" fill="none" xmlns="http://www.w3.org/2000/svg">
<path d="M21.2571 13.7925C21.2545 13.7898 21.2517 13.7871 21.249 13.7844L12.8634 5.38771C12.7968 5.32145 12.7231 5.26259 12.6438 5.21212L12.4024 5.0804L12.2378 5.02551H12.117C11.932 4.9915 11.7423 4.9915 11.5572 5.02551H11.4475H11.3158L11.1292 5.12429C11.0252 5.18078 10.9292 5.25091 10.8438 5.33282L2.4252 13.7844C1.86146 14.3436 1.85781 15.254 2.41707 15.8178C2.41975 15.8205 2.42247 15.8232 2.4252 15.8259C2.99347 16.3681 3.88746 16.3681 4.45578 15.8259L9.4718 10.8208C9.6882 10.6087 10.0357 10.6121 10.2479 10.8285C10.3466 10.9292 10.4028 11.064 10.4047 11.205V27.5483C10.4047 28.3424 11.0484 28.9862 11.8425 28.9862C12.6366 28.9863 13.2804 28.3426 13.2805 27.5485V27.5483V11.205C13.2848 10.902 13.5339 10.6597 13.8369 10.664C13.9779 10.666 14.1127 10.7221 14.2134 10.8208L19.2075 15.8259C19.7772 16.3751 20.6794 16.3751 21.2491 15.8259C21.8128 15.2666 21.8165 14.3562 21.2571 13.7925Z" fill="white"/>
<rect width="23" height="3" rx="1.5" fill="white"/>
</svg>
