<svg width="20" height="24" viewBox="0 0 20 24" fill="none" xmlns="http://www.w3.org/2000/svg">
<path d="M0.742854 15.1937C0.74553 15.1964 0.748256 15.1991 0.750983 15.2018L9.13662 23.5985C9.20324 23.6648 9.27687 23.7236 9.35615 23.7741L9.59761 23.9058L9.76225 23.9607L9.883 23.9607C10.068 23.9947 10.2577 23.9947 10.4428 23.9607L10.5525 23.9607L10.6842 23.9607L10.8708 23.8619C10.9748 23.8054 11.0708 23.7353 11.1562 23.6534L19.5748 15.2018C20.1385 14.6426 20.1422 13.7322 19.5829 13.1684C19.5803 13.1657 19.5775 13.163 19.5748 13.1603C19.0065 12.6181 18.1125 12.6181 17.5442 13.1603L12.5282 18.1654C12.3118 18.3775 11.9643 18.3742 11.7521 18.1577C11.6534 18.057 11.5972 17.9222 11.5953 17.7812L11.5953 1.43793C11.5953 0.643802 10.9516 8.74571e-06 10.1575 -4.28221e-05C9.36336 -9.439e-05 8.71962 0.643596 8.71951 1.43773L8.71951 1.43793L8.71951 17.7812C8.71524 18.0842 8.46612 18.3265 8.16308 18.3222C8.02211 18.3202 7.88726 18.2641 7.78657 18.1654L2.79247 13.1603C2.22276 12.6111 1.32064 12.6111 0.750932 13.1603C0.187192 13.7196 0.183541 14.63 0.742854 15.1937Z" fill="black"/>
</svg>
