<svg width="87" height="84" viewBox="0 0 87 84" fill="none" xmlns="http://www.w3.org/2000/svg">
<path d="M58.0843 10.9827L54.147 12.2261V7.77075H50.935V12.2261L47.1014 10.9827L46.2725 13.7803L50.2097 15.0236L47.6194 18.6501L49.8989 20.4115L52.5928 16.8886L55.1831 20.4115L57.5662 18.6501L54.9759 15.0236L58.9132 13.7803L58.0843 10.9827Z" fill="url(#paint0_linear_971_2094)"/>
<path d="M41.1956 10.9827L37.3619 12.2261V7.77075H34.15V12.2261L30.2127 10.9827L29.3838 13.7803L33.3211 15.0236L30.7307 18.6501L33.1138 20.4115L35.8078 16.8886L38.2945 20.4115L40.6775 18.6501L38.0872 15.0236L42.0245 13.7803L41.1956 10.9827Z" fill="url(#paint1_linear_971_2094)"/>
<path d="M74.7659 10.9827L70.9323 12.2261V7.77075H67.7203V12.2261L63.783 10.9827L62.9541 13.7803L66.8914 15.0236L64.3011 18.6501L66.6841 20.4115L69.2745 16.8886L71.8648 20.4115L74.2479 18.6501L71.6575 15.0236L75.5948 13.7803L74.7659 10.9827Z" fill="url(#paint2_linear_971_2094)"/>
<path d="M72.2794 0H15.3962C7.418 0 0.994031 6.52758 0.994031 14.4021C0.994031 21.3442 5.96742 27.1464 12.495 28.4934V42.6883C10.5264 40.9269 8.14328 40.098 5.96742 40.098C3.79157 40.098 1.40848 41.445 0.475969 43.4136C-0.249317 44.8642 -0.145705 46.4183 0.786807 47.7653C0.994031 48.0761 1.20126 48.2834 1.51209 48.6978C3.16989 50.9773 6.38188 55.1218 6.38188 58.9554C6.38188 59.0591 6.38188 59.0591 6.38188 59.1627C6.38188 65.5866 8.97219 71.6998 13.5311 76.2587C18.1937 80.8176 24.3068 83.408 30.8344 83.408C37.362 83.408 43.4751 80.8176 48.1377 76.2587C52.6966 71.5962 55.2869 65.483 55.2869 58.9554V42.0666C55.2869 38.3366 52.2822 35.3318 48.5521 35.3318C47.516 35.3318 46.4799 35.6427 45.5474 36.0571C45.3401 32.5343 42.439 29.6331 38.8125 29.6331C37.5692 29.6331 36.4295 29.944 35.497 30.5657C35.2897 29.944 35.0825 29.4259 34.7717 28.9079H72.4866C80.4647 28.9079 86.8887 22.3803 86.8887 14.5057C86.8887 6.63119 80.2575 0 72.2794 0ZM35.7042 42.2738V36.3679C35.7042 34.7101 37.0511 33.3632 38.7089 33.3632C40.3667 33.3632 41.7137 34.7101 41.7137 36.3679V46.1075C41.7137 47.1436 42.5426 47.9725 43.5787 47.9725C44.6148 47.9725 45.4437 47.1436 45.4437 46.1075V42.0666C45.4437 40.4088 46.7907 39.0619 48.4485 39.0619C50.1063 39.0619 51.4533 40.4088 51.4533 42.0666V58.9554C51.4533 64.4469 49.2774 69.6275 45.4437 73.5648C41.5065 77.5021 36.3259 79.5743 30.8344 79.5743C25.3429 79.5743 20.1623 77.3984 16.225 73.5648C12.2878 69.6275 10.1119 64.4469 10.1119 58.8518C10.1119 58.7482 10.1119 58.7482 10.1119 58.6446C10.0083 53.5676 6.38187 48.8014 4.51685 46.3147C4.30963 46.0039 4.1024 45.6931 3.89518 45.4858C3.79157 45.3822 3.79157 45.3822 3.89518 45.0714C4.20602 44.4497 5.24214 43.828 5.96742 43.828C7.93606 43.828 11.4589 45.175 12.5986 50.0448C12.8058 50.9773 13.7384 51.599 14.6709 51.4953C15.6034 51.3917 16.3287 50.5628 16.3287 49.6303V13.0552C16.3287 11.3974 17.6756 10.0504 19.3334 10.0504C20.9912 10.0504 22.3382 11.3974 22.3382 13.0552V40.2016C22.3382 41.2377 23.1671 42.0666 24.2032 42.0666C25.2393 42.0666 26.0682 41.2377 26.0682 40.2016V32.5343C26.0682 30.8765 27.4152 29.5295 29.073 29.5295C30.7308 29.5295 32.0777 30.8765 32.0777 32.5343V42.2738C32.0777 43.31 32.9066 44.1389 33.9428 44.1389C34.9789 44.1389 35.7042 43.31 35.7042 42.2738ZM72.2794 25.1778H25.9646V13.0552C25.9646 9.32511 22.9599 6.32035 19.2298 6.32035C15.4998 6.32035 12.495 9.32511 12.495 13.0552V24.7634C8.03967 23.52 4.72408 19.3755 4.72408 14.5057C4.72408 8.59983 9.49025 3.83366 15.3962 3.83366H72.2794C78.1852 3.83366 82.9514 8.59983 82.9514 14.5057C82.9514 20.4116 78.1852 25.1778 72.2794 25.1778Z" fill="url(#paint3_linear_971_2094)"/>
<defs>
<linearGradient id="paint0_linear_971_2094" x1="47.1454" y1="15.5757" x2="58.6384" y2="15.5757" gradientUnits="userSpaceOnUse">
<stop stop-color="#58BEFF"/>
<stop offset="0.28004" stop-color="#BB4EEE"/>
<stop offset="0.66504" stop-color="#FE4996"/>
<stop offset="1" stop-color="#FEA042"/>
</linearGradient>
<linearGradient id="paint1_linear_971_2094" x1="30.2567" y1="15.5757" x2="41.7497" y2="15.5757" gradientUnits="userSpaceOnUse">
<stop stop-color="#58BEFF"/>
<stop offset="0.28004" stop-color="#BB4EEE"/>
<stop offset="0.66504" stop-color="#FE4996"/>
<stop offset="1" stop-color="#FEA042"/>
</linearGradient>
<linearGradient id="paint2_linear_971_2094" x1="63.827" y1="15.5757" x2="75.32" y2="15.5757" gradientUnits="userSpaceOnUse">
<stop stop-color="#58BEFF"/>
<stop offset="0.28004" stop-color="#BB4EEE"/>
<stop offset="0.66504" stop-color="#FE4996"/>
<stop offset="1" stop-color="#FEA042"/>
</linearGradient>
<linearGradient id="paint3_linear_971_2094" x1="6" y1="51.5" x2="85" y2="51.5" gradientUnits="userSpaceOnUse">
<stop stop-color="#58BEFF"/>
<stop offset="0.28004" stop-color="#BB4EEE"/>
<stop offset="0.66504" stop-color="#FE4996"/>
<stop offset="1" stop-color="#FEA042"/>
</linearGradient>
</defs>
</svg>
