<svg width="83" height="83" viewBox="0 0 83 83" fill="none" xmlns="http://www.w3.org/2000/svg">
<path d="M82.6959 48.936L71.932 35.4812V27.6677C71.932 26.9031 71.3133 26.2844 70.5487 26.2844H34.235C42.1501 15.6336 34.0716 -0.186586 20.7494 0.00167267C7.42913 -0.187054 -0.652423 15.6365 7.26398 26.2844H1.38332C0.618718 26.2844 1.18986e-05 26.9031 1.18986e-05 27.6677C7.69141e-05 38.9335 -3.51339e-05 63.996 1.18986e-05 75.0325C1.18986e-05 75.7971 0.618718 76.4158 1.38332 76.4158H7.15566V81.6167C7.15566 82.3813 7.77437 83 8.53897 83H70.5487C71.3133 83 71.932 82.3813 71.932 81.6167C71.8917 78.9487 71.9611 73.1742 71.932 70.5502H76.082C76.8466 70.5502 77.4653 69.9315 77.4653 69.1669V51.1839H81.6152C82.7402 51.2202 83.4262 49.7918 82.6959 48.936ZM20.7496 2.76813C33.1326 2.68637 39.3257 18.2611 30.2434 26.6627C25.142 31.6543 16.3681 31.6649 11.2529 26.6598C2.17552 18.2613 8.36821 2.68306 20.7496 2.76813ZM9.76963 29.051C15.8115 34.5336 25.6881 34.5337 31.7296 29.051H69.1654V35.4812L58.4016 48.936C57.6718 49.7916 58.3569 51.2205 59.4823 51.1839C59.4823 51.1839 63.6322 51.1839 63.6322 51.1839V59.9354L54.7082 52.8914C54.2016 52.4916 53.487 52.4956 52.9858 52.8982L40.8333 62.6543L19.0516 41.1522C18.5382 40.6456 17.7196 40.6186 17.1738 41.0914L2.76663 53.5882V29.051H9.76963ZM69.1654 80.2334H9.92228V76.4212H69.1654V80.2334ZM69.1654 73.6492H2.76663V57.2507L18.0195 44.0215L39.7674 65.4898C40.2673 65.9842 41.0575 66.0221 41.6046 65.5844L53.8585 55.7459L63.6322 63.4597V69.1669C63.6322 69.9315 64.2509 70.5502 65.0155 70.5502H69.1654V73.6492ZM76.082 48.4173C75.3174 48.4173 74.6987 49.036 74.6987 49.8006V67.7836C72.6302 67.7836 68.4668 67.7836 66.3988 67.7836V49.8006C66.3988 49.036 65.7801 48.4173 65.0155 48.4173H62.361L70.5492 38.1823L78.7365 48.4173H76.082Z" fill="url(#paint0_linear_973_2102)"/>
<path d="M47.0325 47.0342C50.8461 47.0342 53.9492 43.9311 53.9492 40.1175C53.6241 30.9632 40.4394 30.9656 40.1157 40.1176C40.1157 43.9311 43.2188 47.0342 47.0325 47.0342ZM47.0325 35.9674C52.5048 36.1109 52.5037 44.1249 47.0323 44.2675C41.5601 44.1241 41.5612 36.1101 47.0325 35.9674Z" fill="url(#paint1_linear_973_2102)"/>
<path d="M19.8011 27.4574C20.3327 27.96 21.1662 27.96 21.6978 27.4574C23.119 26.1187 27.9107 21.5026 29.9263 18.34C35.6264 10.1147 27.1811 2.26198 20.7495 10.3102C14.3157 2.2622 5.87315 10.1151 11.5728 18.34C13.5882 21.5026 18.3799 26.1187 19.8011 27.4574ZM12.5993 11.6138C14.0976 8.00388 17.6566 9.93387 19.52 13.5293C19.9956 14.448 21.5033 14.448 21.9788 13.5294C26.0534 6.03943 31.7319 10.9142 27.5917 16.8541C26.0653 19.2506 22.5543 22.7846 20.7495 24.5354C17.9885 21.596 11.4804 16.1898 12.5993 11.6138Z" fill="url(#paint2_linear_973_2102)"/>
<defs>
<linearGradient id="paint0_linear_973_2102" x1="4.99891" y1="46.5" x2="76.5" y2="46.5" gradientUnits="userSpaceOnUse">
<stop stop-color="#58BEFF"/>
<stop offset="0.28004" stop-color="#BB4EEE"/>
<stop offset="0.60004" stop-color="#FE4996"/>
<stop offset="1" stop-color="#FEA042"/>
</linearGradient>
<linearGradient id="paint1_linear_973_2102" x1="40.9489" y1="40.9737" x2="52.8662" y2="40.9737" gradientUnits="userSpaceOnUse">
<stop stop-color="#58BEFF"/>
<stop offset="0.28004" stop-color="#BB4EEE"/>
<stop offset="0.60004" stop-color="#FE4996"/>
<stop offset="1" stop-color="#FEA042"/>
</linearGradient>
<linearGradient id="paint2_linear_973_2102" x1="11.0202" y1="18.6459" x2="30.0792" y2="18.6459" gradientUnits="userSpaceOnUse">
<stop stop-color="#58BEFF"/>
<stop offset="0.28004" stop-color="#BB4EEE"/>
<stop offset="0.60004" stop-color="#FE4996"/>
<stop offset="1" stop-color="#FEA042"/>
</linearGradient>
</defs>
</svg>
