<svg width="20" height="20" viewBox="0 0 20 20" fill="none" xmlns="http://www.w3.org/2000/svg">
<path d="M10.2823 5.06152C7.71103 5.06152 5.62103 7.14464 5.62103 9.71589C5.62103 12.2871 7.71103 14.3771 10.2823 14.3771C12.8535 14.3771 14.9435 12.294 14.9435 9.71589C14.9435 7.13777 12.8535 5.06152 10.2823 5.06152ZM10.2823 12.7065C8.63228 12.7065 7.29853 11.3659 7.29853 9.71589C7.29853 8.06589 8.63228 6.73215 10.2823 6.73215C11.9323 6.73215 13.266 8.07277 13.266 9.71589C13.266 11.359 11.9323 12.7065 10.2823 12.7065Z" fill="white"/>
<path d="M16.3323 5.0615C16.3323 5.67338 15.8373 6.16838 15.2254 6.16838C14.6135 6.16838 14.1117 5.67338 14.1117 5.0615C14.1117 4.44963 14.6135 3.94775 15.2254 3.94775C15.8373 3.94775 16.3323 4.44963 16.3323 5.0615Z" fill="white"/>
<path d="M14.4344 0.255859H6.12258C3.19383 0.255859 0.82196 2.6346 0.82196 5.56335V13.8752C0.82196 16.804 3.19383 19.1758 6.12258 19.1758H14.4344C17.3701 19.1758 19.7419 16.804 19.7419 13.8752V5.56335C19.7419 2.6346 17.3701 0.255859 14.4344 0.255859ZM17.9613 13.779C17.9613 15.7796 16.3388 17.4021 14.3382 17.4021H6.2257C4.22508 17.4021 2.60258 15.7796 2.60258 13.779V5.6596C2.60258 3.65898 4.22508 2.03648 6.2257 2.03648H14.3382C16.3388 2.03648 17.9613 3.65898 17.9613 5.6596V13.779Z" fill="white"/>
<path d="M10.2823 5.06152C7.71103 5.06152 5.62103 7.14464 5.62103 9.71589C5.62103 12.2871 7.71103 14.3771 10.2823 14.3771C12.8535 14.3771 14.9435 12.294 14.9435 9.71589C14.9435 7.13777 12.8535 5.06152 10.2823 5.06152ZM10.2823 12.7065C8.63228 12.7065 7.29853 11.3659 7.29853 9.71589C7.29853 8.06589 8.63228 6.73215 10.2823 6.73215C11.9323 6.73215 13.266 8.07277 13.266 9.71589C13.266 11.359 11.9323 12.7065 10.2823 12.7065Z" fill="white"/>
<path d="M16.3323 5.0615C16.3323 5.67338 15.8373 6.16838 15.2254 6.16838C14.6135 6.16838 14.1117 5.67338 14.1117 5.0615C14.1117 4.44963 14.6135 3.94775 15.2254 3.94775C15.8373 3.94775 16.3323 4.44963 16.3323 5.0615Z" fill="white"/>
<path d="M10.2823 5.06152C7.71103 5.06152 5.62103 7.14464 5.62103 9.71589C5.62103 12.2871 7.71103 14.3771 10.2823 14.3771C12.8535 14.3771 14.9435 12.294 14.9435 9.71589C14.9435 7.13777 12.8535 5.06152 10.2823 5.06152ZM10.2823 12.7065C8.63228 12.7065 7.29853 11.3659 7.29853 9.71589C7.29853 8.06589 8.63228 6.73215 10.2823 6.73215C11.9323 6.73215 13.266 8.07277 13.266 9.71589C13.266 11.359 11.9323 12.7065 10.2823 12.7065Z" fill="white"/>
<path d="M16.3323 5.0615C16.3323 5.67338 15.8373 6.16838 15.2254 6.16838C14.6135 6.16838 14.1117 5.67338 14.1117 5.0615C14.1117 4.44963 14.6135 3.94775 15.2254 3.94775C15.8373 3.94775 16.3323 4.44963 16.3323 5.0615Z" fill="white"/>
</svg>
