<svg width="20" height="20" viewBox="0 0 20 20" fill="none" xmlns="http://www.w3.org/2000/svg">
<path d="M1.19506 6.4221H5.10005V18.9621H1.19506V6.4221ZM3.14755 0.193359C1.8963 0.193359 0.885681 1.20398 0.885681 2.45523C0.885681 3.70648 1.8963 4.7171 3.14755 4.7171C4.3988 4.7171 5.40942 3.70648 5.40942 2.45523C5.40942 1.20398 4.39192 0.193359 3.14755 0.193359Z" fill="white"/>
<path d="M15.798 19.1273C15.798 16.8173 15.8117 14.5073 15.7774 12.1973C15.7774 10.9667 15.2067 9.66048 13.7767 9.71548C13.7767 9.71548 11.3361 9.30985 11.4392 12.933V19.1273H7.548V6.60111H11.2811V8.31298C11.2811 8.26486 11.3774 8.16861 11.4049 8.13423C11.5217 7.97611 11.6455 7.82486 11.7761 7.68736C12.2024 7.23361 12.718 6.86236 13.2886 6.62173C14.0174 6.31236 14.9042 6.22986 15.6949 6.27111C15.9974 6.28486 16.293 6.33298 16.5817 6.40861C17.3792 6.62173 18.0874 7.07548 18.5961 7.72173C19.4074 8.75985 19.6549 10.1349 19.6961 11.4205C19.703 11.6955 19.6961 11.9773 19.6961 12.2523V19.1205H15.8049L15.798 19.1273Z" fill="white"/>
</svg>
