<svg width="26" height="23" viewBox="0 0 26 23" fill="none" xmlns="http://www.w3.org/2000/svg">
<path d="M24.1429 0H1.85714C1.3646 0 0.892227 0.195663 0.543945 0.543945C0.195663 0.892227 0 1.3646 0 1.85714C0 2.34969 0.195663 2.82206 0.543945 3.17034C0.892227 3.51862 1.3646 3.71429 1.85714 3.71429H24.1429C24.6354 3.71429 25.1078 3.51862 25.4561 3.17034C25.8043 2.82206 26 2.34969 26 1.85714C26 1.3646 25.8043 0.892227 25.4561 0.543945C25.1078 0.195663 24.6354 0 24.1429 0Z" fill="white"/>
<path d="M16.7143 9.28571H1.85714C1.3646 9.28571 0.892227 9.48137 0.543945 9.82965C0.195663 10.1779 0 10.6503 0 11.1428C0 11.6354 0.195663 12.1078 0.543945 12.456C0.892227 12.8043 1.3646 13 1.85714 13H16.7143C17.2068 13 17.6792 12.8043 18.0275 12.456C18.3758 12.1078 18.5714 11.6354 18.5714 11.1428C18.5714 10.6503 18.3758 10.1779 18.0275 9.82965C17.6792 9.48137 17.2068 9.28571 16.7143 9.28571Z" fill="white"/>
<path d="M9.28572 18.5714H1.85714C1.3646 18.5714 0.892227 18.7671 0.543945 19.1154C0.195663 19.4636 0 19.936 0 20.4286C0 20.9211 0.195663 21.3935 0.543945 21.7418C0.892227 22.09 1.3646 22.2857 1.85714 22.2857H9.28572C9.77826 22.2857 10.2506 22.09 10.5989 21.7418C10.9472 21.3935 11.1429 20.9211 11.1429 20.4286C11.1429 19.936 10.9472 19.4636 10.5989 19.1154C10.2506 18.7671 9.77826 18.5714 9.28572 18.5714Z" fill="white"/>
</svg>
