<svg width="100" height="83" viewBox="0 0 100 83" fill="none" xmlns="http://www.w3.org/2000/svg">
<path d="M97.64 35.4275L64.72 2.5075C63.9792 1.72798 63.0898 1.10459 62.1043 0.674071C61.1189 0.243546 60.0572 0.0145854 58.9819 0.000674414C57.9066 -0.0132366 56.8393 0.188184 55.8431 0.593071C54.8468 0.997958 53.9416 1.59813 53.1808 2.35822C52.4201 3.11831 51.8191 4.02296 51.4134 5.01889C51.0076 6.01481 50.8052 7.08186 50.8182 8.15719C50.8312 9.23252 51.0592 10.2944 51.4889 11.2802C51.9185 12.2661 52.5411 13.156 53.32 13.8975L72.78 33.3275H8.06C5.92236 33.3275 3.87226 34.1767 2.36072 35.6882C0.849176 37.1998 0 39.2499 0 41.3875C0 43.5251 0.849176 45.5752 2.36072 47.0868C3.87226 48.5983 5.92236 49.4475 8.06 49.4475H72.6L53.32 68.7575C51.8714 70.2817 51.0758 72.3117 51.103 74.4143C51.1302 76.5168 51.9781 78.5256 53.4656 80.0118C54.9531 81.498 56.9626 82.3441 59.0652 82.3694C61.1678 82.3948 63.1971 81.5974 64.72 80.1475L97.64 47.2275C98.3911 46.4809 98.9864 45.5926 99.3915 44.6141C99.7967 43.6357 100.003 42.5865 100 41.5275C100.005 41.4609 100.005 41.3941 100 41.3275C100.005 41.2609 100.005 41.1941 100 41.1275C99.9993 38.9899 99.1505 36.94 97.64 35.4275Z" fill="#A4A4A4"/>
</svg>
