<svg width="27" height="26" viewBox="0 0 27 26" fill="none" xmlns="http://www.w3.org/2000/svg">
<path d="M25.7365 23.4582L18.7705 16.4218C20.0323 14.7327 20.7901 12.6382 20.7901 10.3636C20.7901 4.8 16.3099 0.272726 10.8001 0.272726C5.29206 0.272726 0.810059 4.8 0.810059 10.3636C0.810059 15.9291 5.29206 20.4545 10.8001 20.4545C13.0519 20.4545 15.1255 19.6891 16.7977 18.4145L23.7637 25.4509C24.0355 25.7255 24.3937 25.8655 24.7501 25.8655C25.1065 25.8655 25.4629 25.7273 25.7365 25.4509C26.2819 24.9 26.2819 24.0091 25.7365 23.4582ZM2.79006 10.3636C2.79006 5.90182 6.38466 2.27273 10.8001 2.27273C15.2173 2.27273 18.8101 5.90364 18.8101 10.3636C18.8101 14.8236 15.2173 18.4545 10.8001 18.4545C6.38286 18.4545 2.79006 14.8255 2.79006 10.3636Z" fill="white" fill-opacity="0.8"/>
</svg>
