<svg width="16" height="22" viewBox="0 0 16 22" fill="none" xmlns="http://www.w3.org/2000/svg">
<path d="M15.2232 4.9646V7.84522C14.1714 7.84522 13.1882 7.56335 12.3426 7.06835V15.449H12.322C12.3357 15.5865 12.3426 15.724 12.3426 15.8683C12.3426 19.0514 9.76449 21.6296 6.58137 21.6296C4.77325 21.6296 3.1645 20.7977 2.10575 19.4983C1.30138 18.5083 0.820129 17.2433 0.820129 15.8683C0.820129 12.6852 3.39825 10.1071 6.58137 10.1071C6.75324 10.1071 6.93199 10.114 7.10387 10.1346C7.33074 10.1552 7.55762 10.1896 7.77762 10.2308V13.2421C7.41324 13.0771 7.00762 12.9877 6.58137 12.9877C4.98637 12.9877 3.69387 14.2733 3.69387 15.8683C3.69387 16.4733 3.8795 17.0302 4.19575 17.4908C4.677 17.8483 5.26825 18.0546 5.90762 18.0546C7.50262 18.0546 8.78824 16.7621 8.78824 15.1671C8.78824 15.0296 8.78136 14.8852 8.76074 14.7477H8.78136C8.78136 14.7477 8.78136 10.1758 8.78824 10.1827V1.38273C8.78824 1.21773 8.80199 1.04586 8.81574 0.880859H11.6689C11.6689 0.880859 11.6414 1.21773 11.6482 1.25898C11.662 1.43086 11.7514 1.62336 11.8132 1.78836C11.937 2.13211 12.0882 2.46898 12.267 2.79211C12.5282 3.2596 12.8376 3.69273 13.202 4.0846C13.5664 4.47648 14.0064 4.75148 14.5495 4.88898C14.7695 4.94398 14.9964 4.9646 15.2232 4.9646Z" fill="white"/>
</svg>
