<svg width="81" height="80" viewBox="0 0 81 80" fill="none" xmlns="http://www.w3.org/2000/svg">
<path d="M67.57 63.1171L57.6872 57.4101V57.414C57.3434 57.2148 56.9176 57.2148 56.5739 57.414C56.2301 57.6132 56.0192 57.9804 56.0192 58.3749V69.7889C56.0153 70.1874 56.2301 70.5546 56.5739 70.7538C56.9176 70.953 57.3434 70.953 57.6872 70.7538L67.57 65.0468C67.9137 64.8476 68.1247 64.4804 68.1247 64.0819C68.1247 63.6835 67.9137 63.3163 67.57 63.1171ZM58.2419 67.8593V60.3007L64.7888 64.078L58.2419 67.8593ZM74.8869 51.6793H65.7228L63.9884 45.2066C68.2501 43.4488 70.5978 38.4644 69.2775 33.5466C68.6251 31.0349 67.0548 28.863 64.8791 27.4607C63.0979 26.3045 60.965 25.8162 58.8635 26.0896L57.8752 22.406L70.1722 22.4099C72.8167 22.406 74.9613 20.2615 74.9652 17.613V4.793C74.9613 2.1485 72.8168 0.0039 70.1722 0H47.2582C44.6137 0.003906 42.4691 2.1484 42.4652 4.793V17.613C42.4652 18.3552 42.6332 19.0857 42.9652 19.7497C39.6996 22.1911 36.1761 24.2653 32.4572 25.9333V13.1713C32.4533 10.5307 30.3127 8.3901 27.6681 8.3822H4.7891C2.1446 8.38611 0.0039 10.5267 0 13.1713V25.9723C0.003906 28.6168 2.1445 30.7575 4.7891 30.7614H13.5352L16.3008 32.363C15.1875 32.7888 14.0547 33.2263 12.9453 33.6716L8.3242 34.9099C5.1445 35.7654 3.2578 39.0349 4.1094 42.2146L8.5078 58.6206C9.21483 61.2261 11.5742 63.0347 14.2695 63.0464C14.7929 63.0464 15.3086 62.98 15.8125 62.8433L16.4531 62.6714L26.1367 79.4444C26.3359 79.7921 26.7031 80.003 27.1016 80.003C27.1992 80.003 27.293 79.9913 27.3867 79.9639L34.4805 78.0655H34.4844C34.793 77.9835 35.0508 77.7686 35.1915 77.4835C35.3321 77.1944 35.3438 76.8624 35.2227 76.5655L28.4297 60.3235C33.5899 59.3743 38.7967 58.7141 44.0317 58.3469V71.2529C44.0317 74.1396 46.3755 76.4795 49.2622 76.4834H74.8872C77.7739 76.4795 80.1138 74.1396 80.1177 71.2529V56.9089C80.1138 54.0222 77.7736 51.6832 74.8869 51.6793ZM63.6879 29.3353V29.3392C65.3949 30.4447 66.6254 32.1517 67.1293 34.1204C68.1957 37.6009 66.6332 41.347 63.4066 43.0345L59.4457 28.2615C60.9418 28.1404 62.4301 28.5193 63.684 29.3396L63.6879 29.3353ZM56.9887 27.6634L61.5707 44.7804L63.4184 51.6788H56.3598L48.52 22.4088H55.5747L56.9887 27.6634ZM44.6917 4.79239C44.6917 3.37439 45.8401 2.22599 47.2581 2.22599H70.1721C71.5901 2.22599 72.7385 3.37439 72.7424 4.79239V17.6124C72.7385 19.0304 71.5901 20.1788 70.1721 20.1827H47.4301C47.2348 20.1085 47.0199 20.0968 46.8129 20.1397C45.5863 19.9249 44.6918 18.8585 44.6918 17.6124L44.6917 4.79239ZM13.8367 28.5384H4.78978C3.37568 28.5384 2.22728 27.39 2.22338 25.9759V13.1749C2.22729 11.7608 3.37568 10.6124 4.78978 10.6124H27.6688C29.0868 10.6124 30.2313 11.7608 30.2352 13.1749V25.9759C30.2313 27.39 29.0868 28.5384 27.6688 28.5384H26.6063C26.3094 28.5384 26.0282 28.6556 25.8211 28.8665C25.6102 29.0736 25.493 29.3548 25.493 29.6517V35.1009L14.391 28.6907H14.3949C14.223 28.593 14.032 28.5384 13.8367 28.5384ZM15.2351 60.6904C13.2429 61.2138 11.1999 60.0341 10.6609 58.0459L6.25858 41.6399C5.72733 39.6438 6.91092 37.593 8.90308 37.0579L12.5164 36.0891L18.8484 59.7221L15.2351 60.6904ZM27.6331 77.5884L18.6761 62.0724L20.4339 61.5997C22.3245 61.3302 24.262 61.0138 26.1722 60.7013L32.6722 76.2403L27.6331 77.5884ZM44.0861 56.1154C38.4611 56.506 32.8631 57.217 27.3201 58.2521C25.2459 58.5998 23.1092 58.9513 21.0271 59.2638L14.6287 35.3928C16.0193 34.842 17.4295 34.3069 18.7889 33.7912L26.0467 37.9826C26.3904 38.1818 26.8123 38.1818 27.16 37.9826C27.5037 37.7834 27.7147 37.4162 27.7147 37.0217V30.76C29.2303 30.7443 30.6483 30.01 31.5389 28.7795C36.1053 26.8733 40.4256 24.4123 44.3939 21.4553C44.9251 21.8498 45.5306 22.131 46.1751 22.2795L54.0579 51.6775H49.2571C46.6751 51.6814 44.4798 53.5642 44.0852 56.115L44.0861 56.1154ZM77.8951 71.2524C77.8873 72.9086 76.5435 74.2524 74.8873 74.2524H49.2583C47.6021 74.2524 46.2583 72.9086 46.2544 71.2524V56.9084C46.2544 55.2522 47.5982 53.9045 49.2583 53.9045H74.8873C76.5475 53.9084 77.8912 55.2522 77.8951 56.9084V71.2524ZM58.6101 18.2914H58.821C60.6218 18.182 64.7312 14.1859 66.0358 10.7406C67.1061 7.90859 66.1686 6.15079 65.1921 5.17419C63.3444 3.32649 60.6999 4.15079 58.7155 5.58435C56.7311 4.15075 54.0827 3.32655 52.2389 5.17419C51.2623 6.15075 50.3209 7.90859 51.3951 10.7406C52.6998 14.1859 56.8055 18.182 58.6101 18.2914ZM53.8132 6.74839C54.0905 6.47106 54.4733 6.32261 54.8679 6.33823C56.0398 6.49839 57.1296 7.02573 57.9851 7.84603C58.4031 8.20931 59.0281 8.20931 59.446 7.84603C60.4929 6.93587 62.5476 5.67804 63.6218 6.74444C64.2858 7.45147 64.489 8.47883 64.1413 9.38503C63.3249 12.4319 59.6999 15.6233 58.7155 16.0412C57.7311 15.6272 54.1061 12.4318 53.2897 9.38503H53.2936C52.946 8.47878 53.1452 7.45539 53.8132 6.74839ZM6.29728 15.8578C6.29728 15.2406 6.79728 14.7445 7.41058 14.7445H25.0476C25.6609 14.7445 26.1609 15.2406 26.1609 15.8578C26.1609 16.4711 25.6609 16.9711 25.0476 16.9711H7.41058C6.7973 16.9711 6.29728 16.4711 6.29728 15.8578ZM25.0473 24.6586L7.41028 24.6547C7.1095 24.6664 6.81653 24.5531 6.60169 24.3422C6.38685 24.1313 6.26575 23.8461 6.26575 23.5453C6.26575 23.2445 6.38684 22.9555 6.60169 22.7445C6.81653 22.5375 7.1095 22.4242 7.41028 22.432H25.0473C25.3481 22.4242 25.641 22.5375 25.8559 22.7445C26.0707 22.9555 26.1918 23.2445 26.1918 23.5453C26.1918 23.8461 26.0707 24.1313 25.8559 24.3422C25.641 24.5531 25.3481 24.6664 25.0473 24.6547V24.6586Z" fill="url(#paint0_linear_973_2110)"/>
<defs>
<linearGradient id="paint0_linear_973_2110" x1="8.38229e-07" y1="65" x2="80" y2="65" gradientUnits="userSpaceOnUse">
<stop stop-color="#58BEFF"/>
<stop offset="0.29004" stop-color="#BB4EEE"/>
<stop offset="0.64004" stop-color="#FE4996"/>
<stop offset="1" stop-color="#FEA042"/>
</linearGradient>
</defs>
</svg>
